<?xml version="1.0" encoding="UTF-8"?>
<!-- Generator: Adobe Illustrator 26.0.2, SVG Export Plug-In . SVG Version: 6.00 Build 0)  -->
<svg xmlns="http://www.w3.org/2000/svg" xmlns:xlink="http://www.w3.org/1999/xlink" version="1.1" id="Layer_1" x="0px" y="0px" viewBox="0 0 158 50" style="enable-background:new 0 0 158 50;" xml:space="preserve">
<style type="text/css">
	.st0{fill-rule:evenodd;clip-rule:evenodd;}
	.st1{fill-rule:evenodd;clip-rule:evenodd;fill:#62D84E;}
</style>
<desc>Created with Sketch.</desc>
<g>
	<g>
		<path class="st0" d="M38.8,19.2c-1.7,0-3.1,0.6-4.3,1.5v-1.4h-3.9v15.3h4.1v-9.8c0.6-0.8,2-1.9,3.7-1.9c0.6,0,1.2,0,1.6,0.2v-3.9    C39.6,19.2,39.2,19.2,38.8,19.2"></path>
		<path class="st0" d="M3.1,30c1,0.9,2.6,1.5,4.2,1.5c1.1,0,2-0.5,2-1.3c0-2.3-7.4-1.5-7.4-6.4c0-2.9,2.8-4.8,5.9-4.8    c2,0,4.2,0.8,5.2,1.5l-1.9,3c-0.8-0.6-1.8-1-2.9-1c-1.1,0-2.1,0.4-2.1,1.2c0,2,7.4,1.2,7.4,6.5c0,2.9-2.9,4.7-6.1,4.7    c-2.1,0-4.3-0.7-6.1-2.1L3.1,30z"></path>
		<path class="st0" d="M28.8,26.9c0-4.3-3-7.8-7.2-7.8c-4.5,0-7.4,3.7-7.4,8c0,4.8,3.4,8,8,8c2.4,0,4.8-1,6.3-2.7l-2.3-2.3    c-0.7,0.8-2.1,1.8-3.8,1.8c-2.2,0-3.9-1.5-4.1-3.6h10.6C28.7,27.7,28.8,27.3,28.8,26.9z M18.3,25c0.2-1.4,1.6-2.7,3.3-2.7    c1.7,0,2.9,1.3,3,2.7H18.3z"></path>
		<polygon class="st0" points="49.7,28.7 53.9,19.3 58.2,19.3 51.1,34.7 48.3,34.7 41.3,19.3 45.5,19.3   "></polygon>
		<g>
			<path class="st0" d="M61.6,12.1c1.5,0,2.7,1.1,2.7,2.6c0,1.5-1.2,2.6-2.7,2.6c-1.5,0-2.7-1.1-2.7-2.6     C58.9,13.3,60.1,12.1,61.6,12.1"></path>
			<rect x="59.6" y="19.3" class="st0" width="4.1" height="15.3"></rect>
		</g>
		<path class="st0" d="M80.6,31.5c-1.8,2.4-4.1,3.4-6.9,3.4c-4.7,0-8.2-3.5-8.2-8c0-4.5,3.6-8,8.2-8c2.6,0,5,1.2,6.4,3.1l-2.9,2.6    c-0.8-1.1-2-1.8-3.5-1.8c-2.4,0-4.1,1.9-4.1,4.2c0,2.4,1.7,4.2,4.2,4.2c1.7,0,3-1,3.7-2L80.6,31.5z"></path>
		<path class="st0" d="M95.4,32.2C94,34,91.5,35,89.2,35c-4.6,0-8-3.2-8-8c0-4.3,2.9-8,7.4-8c4.2,0,7.2,3.6,7.2,7.8    c0,0.4,0,0.8-0.1,1.2H85.1c0.2,2.1,2,3.6,4.1,3.6c1.7,0,3.1-1,3.8-1.8L95.4,32.2z M91.6,25c-0.1-1.4-1.4-2.7-3-2.7    c-1.7,0-3.1,1.3-3.3,2.7H91.6z"></path>
		<path class="st0" d="M97.4,34.7V19.3h3.9v1.2c1.2-0.9,2.6-1.5,4.3-1.5c2.1,0,4,0.9,5.3,2.5c1,1.2,1.6,2.7,1.6,5.4v7.8h-4.1v-8.1    c0-1.5-0.3-2.3-0.9-2.9c-0.5-0.5-1.4-0.9-2.3-0.9c-1.7,0-3.1,1.1-3.7,1.9v10H97.4z"></path>
		<path class="st1" d="M123.1,19c-4.9,0-8.9,4-9,8.9c0,2.6,1.1,4.9,2.8,6.6c0.6,0.6,1.6,0.7,2.3,0.1c1-0.8,2.3-1.3,3.8-1.3    c1.5,0,2.8,0.5,3.8,1.3c0.7,0.5,1.7,0.5,2.3-0.1c1.7-1.6,2.8-3.9,2.8-6.5C132,23,128,19,123.1,19 M123,32.5c-2.6,0-4.5-2-4.5-4.5    c0-2.5,1.8-4.5,4.5-4.5c2.7,0,4.5,2,4.5,4.5C127.5,30.5,125.7,32.5,123,32.5"></path>
		<g>
			<polygon class="st0" points="140.1,34.7 137,34.7 130.9,19.3 135,19.3 138.4,28.1 141.6,19.3 145.1,19.3 148.3,28.1 151.7,19.3      155.7,19.3 149.7,34.7 146.6,34.7 143.3,25.9    "></polygon>
		</g>
	</g>
	<g>
		<g>
			<path d="M155.8,32.9h-0.3v0.6h-0.3v-1.8h0.7c0.3,0,0.6,0.3,0.6,0.6c0,0.2-0.1,0.4-0.4,0.5l0.4,0.7h-0.3L155.8,32.9z M155.4,32.7     h0.4c0.2,0,0.3-0.1,0.3-0.3c0-0.2-0.1-0.3-0.3-0.3h-0.4V32.7z"></path>
		</g>
		<path d="M155.7,31.1c0.9,0,1.6,0.7,1.6,1.6c0,0.9-0.7,1.6-1.6,1.6c-0.9,0-1.6-0.7-1.6-1.6C154.1,31.8,154.8,31.1,155.7,31.1     M155.7,30.8c-1.1,0-1.9,0.9-1.9,1.9s0.9,1.9,1.9,1.9c1.1,0,1.9-0.9,1.9-1.9S156.8,30.8,155.7,30.8L155.7,30.8z"></path>
	</g>
</g>
</svg>
