<?xml version="1.0" standalone="no"?>
<!DOCTYPE svg PUBLIC "-//W3C//DTD SVG 20010904//EN"
 "http://www.w3.org/TR/2001/REC-SVG-20010904/DTD/svg10.dtd">
<svg version="1.0" xmlns="http://www.w3.org/2000/svg"
 width="309.000000pt" height="309.000000pt" viewBox="0 0 309.000000 309.000000"
 preserveAspectRatio="xMidYMid meet">
<metadata>
Created by potrace 1.14, written by Peter Selinger 2001-2017
</metadata>
<g transform="translate(0.000000,309.000000) scale(0.100000,-0.100000)"
fill="#000000" stroke="none">
<path d="M197 3066 c-59 -21 -115 -63 -140 -104 -54 -86 -51 -8 -51 -1406 -1
-925 2 -1312 10 -1344 22 -86 100 -166 188 -192 29 -9 375 -12 1337 -12 1446
0 1353 -4 1438 68 23 20 54 59 69 88 l27 51 0 1325 0 1325 -28 57 c-16 32 -46
73 -68 91 -82 71 4 67 -1443 67 -1068 -1 -1308 -3 -1339 -14z"/>
</g>
</svg>
